:SAMPLES-PER-SECOND 30
:FULLY-SPECIFIED
:DEGREES
47
root  60.8169 39.0158 29.1984 -121.385 -83.5943 118.972
RightUpLeg  -5.81708 3.29381 -10.0676
RightLeg  58.0311 0.00792817 -0.454967
RightFoot  13.6825 -0.807883 4.01307
RightToes  5.82063e-011 0 -3.6325e-017
Spine  7.59731 2.76239 -0.0894987
Spine1  6.90722 4.28891 -6.76953
HEad  -12.3263 0.745038 -4.86269
LeftShoulder1  7.3811 -10.3893 -46.3247
LeftArm  -13.8948 25.0341 -33.372
LeftForeArm  24.8795 -7.40481 -4.05369
LeftHand  -0.244104 0.0205437 5.32207
RightShoulder  6.35919 9.70737 41.8782
RightArm  13.1579 -6.20085 36.6012
RightForeArm  1.64015 17.9607 6.32933
RightHand  -0.675793 -0.207887 -15.1393
LeftUpLeg  -13.1896 14.0107 -10.2324
LeftLeg  19.6112 8.74447 2.74632
LeftFoot  -7.61086 -0.0917688 4.23657
LeftToes  1.2005e-010 6.1915e-012 3.32694e-011
48
root  59.6181 39.3422 29.444 -122.993 -84.6769 120.277
RightUpLeg  -10.6568 3.47487 -8.86853
RightLeg  60.6283 -0.885596 -2.20554
RightFoot  10.8976 -0.567872 3.30868
RightToes  5.82063e-011 0 -3.6325e-017
Spine  7.11711 1.81125 0.358802
Spine1  7.77072 3.1684 -5.68248
HEad  -12.7715 2.24393 -5.0501
LeftShoulder1  7.56758 -10.5743 -46.8872
LeftArm  -12.7979 23.9557 -33.0503
LeftForeArm  26.4815 -7.77698 -4.4505
LeftHand  -0.244104 0.0205437 5.32207
RightShoulder  6.2778 9.56081 41.8007
RightArm  12.3087 -8.54484 36.1375
RightForeArm  2.48607 17.8482 6.30878
RightHand  -0.786682 0.525066 -15.4977
LeftUpLeg  -9.27614 11.6251 -8.4452
LeftLeg  17.211 10.9257 1.59581
LeftFoot  -8.664 -0.0435246 4.10086
LeftToes  1.2005e-010 6.1915e-012 3.32694e-011
49
root  58.4773 39.5584 29.66 -124.372 -85.7876 121.536
RightUpLeg  -15.1042 3.3893 -7.67393
RightLeg  60.1668 -1.86331 -4.004
RightFoot  7.72867 -0.743695 4.73653
RightToes  5.82063e-011 0 -3.6325e-017
Spine  6.91602 0.963004 0.718344
Spine1  8.13427 2.09163 -4.86348
HEad  -13.3746 3.60642 -4.67022
LeftShoulder1  7.68166 -10.7004 -47.1785
LeftArm  -11.6873 22.664 -32.4646
LeftForeArm  27.5963 -8.5316 -4.86033
LeftHand  -0.244104 0.0205437 5.32207
RightShoulder  6.15913 9.35979 41.6399
RightArm  11.9129 -11.122 35.2979
RightForeArm  1.80162 17.9881 6.27537
RightHand  -0.808905 0.81513 -15.1998
LeftUpLeg  -6.05677 8.78966 -6.86272
LeftLeg  15.2662 13.2777 0.377677
LeftFoot  -9.58553 -0.00635037 4.17801
LeftToes  1.2005e-010 6.1915e-012 3.32694e-011
50
root  57.3598 39.6843 29.8332 -122.509 -86.7779 119.533
RightUpLeg  -18.769 2.9021 -6.4675
RightLeg  56.8791 -2.76043 -4.99021
RightFoot  5.50541 -0.731644 5.17515
RightToes  5.82063e-011 0 -3.6325e-017
Spine  7.24458 0.21954 0.490105
Spine1  7.8042 0.98744 -3.75413
HEad  -12.8497 4.38399 -3.91205
LeftShoulder1  7.71908 -10.7763 -47.1563
LeftArm  -10.8722 21.249 -31.8211
LeftForeArm  28.0025 -9.41996 -5.10237
LeftHand  -0.244104 0.0205437 5.32207
RightShoulder  6.02625 9.16788 41.3368
RightArm  11.2809 -13.5399 34.3365
RightForeArm  1.58042 17.6266 6.43848
RightHand  -0.753431 0.55052 -14.7862
LeftUpLeg  -3.23756 6.81435 -5.76117
LeftLeg  13.7776 14.5793 -0.691777
LeftFoot  -10.5429 0.0332814 4.34663
LeftToes  1.2005e-010 6.1915e-012 3.32694e-011
51
root  56.2185 39.7649 29.9851 -113.579 -87.7461 110.287
RightUpLeg  -21.1205 1.9541 -5.10817
RightLeg  50.5921 -3.41934 -4.82339
RightFoot  3.66162 -0.569747 4.51463
RightToes  5.82063e-011 0 -3.6325e-017
Spine  7.80606 -0.461915 0.000403699
Spine1  7.40331 -0.128688 -2.21749
HEad  -11.8063 4.69828 -3.20903
LeftShoulder1  7.7336 -10.8371 -47.0431
LeftArm  -10.2678 19.4035 -31.0438
LeftForeArm  27.8646 -10.1114 -5.22045
LeftHand  -0.244104 0.0205437 5.32207
RightShoulder  5.90259 9.01341 40.9603
RightArm  9.58866 -15.575 33.3106
RightForeArm  2.84711 16.5436 6.78544
RightHand  -0.727721 0.309477 -14.8679
LeftUpLeg  -0.246772 5.65882 -4.93457
LeftLeg  12.3196 14.9527 -1.55594
LeftFoot  -11.6084 0.0807315 4.60834
LeftToes  1.2005e-010 6.1915e-012 3.32694e-011
52
root  55.0284 39.7185 30.1113 -97.0573 -88.235 93.3365
RightUpLeg  -22.0928 0.75258 -3.95973
RightLeg  41.5613 -3.69877 -3.78902
RightFoot  2.19473 -0.499927 4.34214
RightToes  5.82063e-011 0 -3.6325e-017
Spine  8.18007 -0.939928 -0.952889
Spine1  7.4365 -1.07492 -0.66496
HEad  -12.3232 4.9971 -3.0189
LeftShoulder1  7.78368 -10.9275 -47.0523
LeftArm  -9.5351 17.1379 -30.0051
LeftForeArm  27.3734 -10.9694 -5.31516
LeftHand  -0.244104 0.0205437 5.32207
RightShoulder  5.81902 8.91181 40.69
RightArm  6.47067 -17.0759 32.0575
RightForeArm  5.34505 14.706 7.24568
RightHand  -0.729031 0.247626 -15.0527
LeftUpLeg  2.54111 5.05837 -4.52011
LeftLeg  11.7252 14.9065 -2.0414
LeftFoot  -13.2297 0.154522 4.59455
LeftToes  1.2005e-010 6.1915e-012 3.32694e-011
53
root  53.7667 39.5494 30.2172 -82.503 -88.0374 78.4123
RightUpLeg  -21.9617 -1.46872 -2.94547
RightLeg  30.5101 -3.34128 -2.46037
RightFoot  1.50151 -0.530622 4.8008
RightToes  5.82063e-011 0 -3.6325e-017
Spine  8.22739 -1.21517 -2.33707
Spine1  7.68421 -1.76781 0.661073
HEad  -12.259 5.29707 -2.08304
LeftShoulder1  7.85639 -11.0591 -47.0639
LeftArm  -8.59189 14.8002 -28.8248
LeftForeArm  26.6586 -12.249 -5.31839
LeftHand  -0.244104 0.0205437 5.32207
RightShoulder  5.79636 8.87402 40.6521
RightArm  2.29966 -18.0803 30.6116
RightForeArm  8.47049 12.1193 7.62751
RightHand  -0.686376 0.0469485 -14.6797
LeftUpLeg  5.00337 4.9597 -4.55078
LeftLeg  11.9334 14.5352 -2.31819
LeftFoot  -15.1861 0.232756 4.21261
LeftToes  1.2005e-010 6.1915e-012 3.32694e-011
54
root  52.4563 39.3907 30.3314 -70.604 -87.5712 66.3207
RightUpLeg  -21.0192 -5.42494 -1.63655
RightLeg  18.03 -2.1053 -0.560059
RightFoot  1.26616 -0.568742 5.22101
RightToes  5.82063e-011 0 -3.6325e-017
Spine  8.11858 -1.45237 -3.48861
Spine1  7.81315 -2.37346 2.0371
HEad  -11.9398 5.23314 -1.24352
LeftShoulder1  7.92665 -11.2142 -46.9843
LeftArm  -7.72294 12.578 -27.6721
LeftForeArm  25.8845 -13.5402 -5.20879
LeftHand  -0.244104 0.0205437 5.32207
RightShoulder  5.76223 8.81389 40.606
RightArm  -1.8825 -18.8928 29.4344
RightForeArm  11.161 9.09017 7.56005
RightHand  -0.611923 -0.307519 -13.9873
LeftUpLeg  7.64117 5.022 -4.6965
LeftLeg  11.5001 13.8596 -2.73441
LeftFoot  -16.5874 0.283746 4.00431
LeftToes  1.2005e-010 6.1915e-012 3.32694e-011
55
root  51.0973 39.219 30.4539 -56.5365 -86.9065 52.1402
RightUpLeg  -19.3809 -7.13237 -1.56901
RightLeg  5.37378 -3.12946 2.70214
RightFoot  0.922258 -0.604975 5.68474
RightToes  5.82063e-011 0 -3.6325e-017
Spine  7.90661 -1.70723 -4.13965
Spine1  7.93865 -2.95928 3.33562
HEad  -11.6177 4.7712 -0.597112
LeftShoulder1  8.00387 -11.381 -46.91
LeftArm  -7.15156 10.2327 -26.6185
LeftForeArm  25.3156 -14.3115 -5.13033
LeftHand  -0.244104 0.0205437 5.32207
RightShoulder  5.66802 8.67818 40.3676
RightArm  -4.98711 -19.7645 28.7996
RightForeArm  11.957 6.3141 6.90021
RightHand  -0.570813 -0.54036 -13.6573
LeftUpLeg  10.441 5.1239 -4.76035
LeftLeg  10.749 12.7989 -3.09459
LeftFoot  -17.8261 0.332702 3.98187
LeftToes  1.2005e-010 6.1915e-012 3.32694e-011
56
root  49.6418 38.9194 30.5626 -46.6462 -85.9957 42.0446
RightUpLeg  -17.8978 -5.12028 -2.87808
RightLeg  -3.78913 -7.19672 5.85094
RightFoot  -0.130235 -0.647871 6.60523
RightToes  5.82063e-011 0 -3.6325e-017
Spine  7.60732 -1.9021 -4.48776
Spine1  8.09187 -3.34504 4.15696
HEad  -11.4341 4.09192 0.222756
LeftShoulder1  8.06009 -11.4969 -46.8746
LeftArm  -6.86588 7.57746 -25.7994
LeftForeArm  24.9171 -14.7792 -5.08616
LeftHand  -0.244104 0.0205437 5.32207
RightShoulder  5.5751 8.5508 40.1039
RightArm  -7.16616 -20.6953 28.411
RightForeArm  11.1626 4.3477 6.14827
RightHand  -0.562932 -0.640049 -13.7402
LeftUpLeg  13.0927 5.60539 -4.61145
LeftLeg  10.9987 11.1258 -3.17435
LeftFoot  -19.7485 0.368821 3.42421
LeftToes  1.2005e-010 6.1915e-012 3.32694e-011
57
root  48.128 38.5812 30.6467 -40.3619 -85.1636 35.5609
RightUpLeg  -18.1471 -5.34069 -2.72019
RightLeg  -4.93428 -9.64747 6.42967
RightFoot  -1.77312 -0.606204 7.04233
RightToes  5.82063e-011 0 -3.6325e-017
Spine  7.35492 -2.02187 -4.45123
Spine1  8.24523 -3.56514 4.6518
HEad  -12.4493 1.71765 0.196208
LeftShoulder1  8.06406 -11.5193 -46.8268
LeftArm  -6.95917 4.98548 -25.3449
LeftForeArm  24.6867 -15.3175 -4.95657
LeftHand  -0.244104 0.0205437 5.32207
RightShoulder  5.55648 8.53181 40.0263
RightArm  -8.45777 -21.4663 27.9615
RightForeArm  10.098 3.3573 5.73277
RightHand  -0.54769 -0.805644 -13.835
LeftUpLeg  15.5227 6.7551 -3.90721
LeftLeg  11.9596 8.66576 -3.07154
LeftFoot  -21.4326 0.325414 2.2198
LeftToes  1.2005e-010 6.1915e-012 3.32694e-011
58
root  46.5817 38.3577 30.7219 -30.9896 -84.4551 26.1589
RightUpLeg  -18.6539 -5.34479 -2.16574
RightLeg  -1.67433 -13.9958 6.05149
RightFoot  -0.817846 -0.439799 4.79007
RightToes  5.82063e-011 0 -3.6325e-017
Spine  7.10137 -2.27199 -3.70613
Spine1  8.50078 -4.00771 5.20236
HEad  -12.9138 1.48798 0.616058
LeftShoulder1  8.06583 -11.5223 -46.8277
LeftArm  -7.32344 3.24713 -25.1654
LeftForeArm  24.1159 -16.3606 -4.64929
LeftHand  -0.244104 0.0205437 5.32207
RightShoulder  5.57636 8.5675 40.053
RightArm  -8.71451 -21.8964 27.5532
RightForeArm  9.79184 3.19866 5.62915
RightHand  -0.521002 -1.0144 -13.7668
LeftUpLeg  17.6953 8.55099 -2.3328
LeftLeg  13.0844 5.32427 -2.58995
LeftFoot  -21.7709 0.203355 0.795424
LeftToes  1.2005e-010 6.1915e-012 3.32694e-011
59
root  44.8969 38.2124 30.8149 -17.6361 -83.571 12.7417
RightUpLeg  -19.6048 -6.85161 -0.694935
RightLeg  4.36367 -16.4279 4.62946
RightFoot  2.61252 0.0362507 -0.0367855
RightToes  5.82063e-011 0 -3.6325e-017
Spine  6.46171 -2.86479 -2.04735
Spine1  8.80658 -4.7134 5.56803
HEad  -13.2828 1.24382 0.535341
LeftShoulder1  8.12349 -11.5806 -46.984
LeftArm  -7.56955 2.88189 -25.1612
LeftForeArm  22.9128 -18.1025 -4.23065
LeftHand  -0.244104 0.0205437 5.32207
RightShoulder  5.57445 8.56481 40.0477
RightArm  -8.61144 -22.0031 27.3017
RightForeArm  10.5029 3.60003 5.6237
RightHand  -0.504517 -1.05705 -13.4586
LeftUpLeg  19.7017 10.5347 0.14128
LeftLeg  14.8669 1.46963 -1.60272
LeftFoot  -21.3588 0.0119219 -1.30765
LeftToes  1.2005e-010 6.1915e-012 3.32694e-011
60
root  43.1141 38.1636 30.9303 -1.98357 -83.179 -3.06189
RightUpLeg  -20.6839 -11.0922 2.98611
RightLeg  10.3862 -12.7254 2.27325
RightFoot  6.25462 0.864258 -5.34879
RightToes  5.82063e-011 0 -3.6325e-017
Spine  5.57838 -3.34164 1.0971
Spine1  9.06575 -5.11381 5.46576
HEad  -13.3399 0.65563 -0.00448497
LeftShoulder1  8.17469 -11.6 -47.2245
LeftArm  -7.62953 3.8704 -25.499
LeftForeArm  21.8106 -20.4378 -3.87429
LeftHand  -0.244104 0.0205437 5.32207
RightShoulder  5.58331 8.57302 40.0874
RightArm  -8.67631 -21.8355 27.0935
RightForeArm  11.1663 4.2761 5.6213
RightHand  -0.492809 -0.952197 -12.8432
LeftUpLeg  21.2637 11.9083 3.344
LeftLeg  17.4651 -1.32367 -0.66508
LeftFoot  -19.905 -0.2587 -5.11643
LeftToes  1.2005e-010 6.1915e-012 3.32694e-011
61
root  41.337 38.1821 31.0062 13.2389 -83.5738 -18.3338
RightUpLeg  -21.7161 -14.7521 7.12719
RightLeg  15.7901 -6.94283 -0.019067
RightFoot  6.68583 1.47646 -9.04423
RightToes  5.82063e-011 0 -3.6325e-017
Spine  4.859 -3.34332 4.37574
Spine1  8.79482 -4.83348 5.11448
HEad  -12.8501 0.385231 -0.625166
LeftShoulder1  8.12447 -11.457 -47.3848
LeftArm  -8.14805 5.96816 -26.2949
LeftForeArm  22.0095 -23.2741 -3.86666
LeftHand  -0.244104 0.0205437 5.32207
RightShoulder  5.64204 8.66203 40.2243
RightArm  -9.04543 -21.2258 27.0244
RightForeArm  10.8623 4.95222 5.62968
RightHand  -0.479647 -0.866738 -12.274
LeftUpLeg  20.882 11.9567 6.01199
LeftLeg  22.7166 -1.60183 -0.325822
LeftFoot  -15.4643 -0.241006 -9.73127
LeftToes  1.2005e-010 6.1915e-012 3.32694e-011
